<?xml version="1.0" standalone="no"?>
<!DOCTYPE svg PUBLIC "-//W3C//DTD SVG 20010904//EN"
 "http://www.w3.org/TR/2001/REC-SVG-20010904/DTD/svg10.dtd">
<svg version="1.0" xmlns="http://www.w3.org/2000/svg"
 width="512.000000pt" height="512.000000pt" viewBox="0 0 512.000000 512.000000"
 preserveAspectRatio="xMidYMid meet">

<g transform="translate(0.000000,512.000000) scale(0.100000,-0.100000)"
fill="#000000" stroke="none">
<path d="M2460 4668 c-25 -14 -58 -44 -75 -67 l-30 -43 -3 -278 c-3 -260 -2
-282 17 -317 71 -140 247 -165 348 -50 51 58 55 85 51 378 l-3 266 -27 39
c-44 62 -90 88 -167 92 -55 3 -74 -1 -111 -20z"/>
<path d="M1140 4107 c-48 -15 -113 -83 -128 -133 -34 -114 -10 -159 186 -357
185 -187 222 -212 307 -211 86 1 152 42 193 119 27 50 22 141 -10 195 -40 68
-334 355 -388 379 -49 22 -106 25 -160 8z"/>
<path d="M3550 4035 c-183 -37 -344 -121 -478 -249 -337 -322 -394 -833 -137
-1221 251 -379 736 -531 1157 -361 232 94 436 296 526 521 49 124 63 190 69
323 l6 124 -39 -20 c-88 -45 -184 -66 -294 -66 -283 0 -513 168 -607 443 -49
143 -33 343 38 483 l19 38 -97 -1 c-54 0 -127 -7 -163 -14z"/>
<path d="M2445 3620 c-365 -39 -689 -273 -850 -613 -192 -406 -100 -900 224
-1210 96 -91 176 -147 295 -203 282 -133 610 -133 893 1 123 58 192 105 286
194 71 68 155 168 146 175 -2 1 -40 15 -84 30 -173 61 -323 155 -450 281 -336
336 -435 838 -254 1278 16 38 29 71 29 73 0 6 -159 2 -235 -6z"/>
<path d="M539 2747 c-24 -13 -57 -43 -74 -66 -27 -39 -30 -50 -30 -120 0 -68
3 -82 27 -117 15 -21 44 -50 65 -64 36 -25 38 -25 302 -28 293 -4 320 0 378
51 114 100 90 277 -49 348 -34 17 -61 19 -306 19 -262 0 -270 -1 -313 -23z"/>
<path d="M1439 1707 c-56 -21 -82 -43 -251 -214 -163 -164 -197 -214 -198
-283 0 -125 95 -220 220 -220 70 1 119 35 288 203 164 162 204 213 217 275 16
79 -31 179 -104 220 -50 29 -125 37 -172 19z"/>
<path d="M3556 1710 c-131 -42 -192 -195 -124 -310 39 -66 345 -365 399 -390
82 -37 166 -21 233 43 67 64 84 152 45 237 -25 55 -334 371 -392 401 -45 23
-120 32 -161 19z"/>
<path d="M2480 1264 c-45 -20 -87 -60 -111 -107 -19 -35 -20 -57 -17 -316 l3
-278 27 -39 c15 -21 44 -50 65 -64 31 -21 48 -25 113 -25 65 0 82 4 113 25 21
14 50 43 65 64 l27 39 3 278 c3 259 2 281 -17 316 -53 103 -172 150 -271 107z"/>
</g>
</svg>
