<svg width="24" height="24" viewBox="0 0 24 24" fill="none" xmlns="http://www.w3.org/2000/svg">
<path fill-rule="evenodd" clip-rule="evenodd" d="M14.9396 18.4766H18.5999C19.372 18.4766 20 17.8164 20 17.0047C20 16.574 19.8216 16.1661 19.5103 15.8869C19.4911 15.8692 19.4703 15.8532 19.4488 15.8381C18.2728 14.7597 17.6 13.2088 17.6 11.571V10.6543C17.6 10.3061 17.3312 10.0234 17 10.0234C16.6688 10.0234 16.4 10.3061 16.4 10.6543V11.571C16.4 13.6032 17.2464 15.5251 18.7224 16.8456C18.7254 16.8482 18.7282 16.8506 18.7311 16.8531C18.7397 16.8604 18.7478 16.8673 18.7568 16.8743C18.7792 16.9029 18.8 16.9457 18.8 17.0047C18.8 17.119 18.7087 17.215 18.5999 17.215H5.39995C5.29126 17.215 5.2 17.119 5.2 17.0047C5.2 16.9467 5.2208 16.9029 5.24233 16.8743C5.25296 16.8667 5.2619 16.859 5.27145 16.8509C5.27347 16.8492 5.27553 16.8474 5.27763 16.8456C6.75273 15.526 7.59999 13.6032 7.59999 11.571V9.22426C7.59999 6.67318 9.57445 4.59815 11.9999 4.59815C12.0119 4.59815 12.0241 4.59803 12.0364 4.59791C12.0895 4.59738 12.1456 4.59683 12.1975 4.6057C12.5183 4.66299 12.8336 4.43074 12.8879 4.0876C12.9424 3.74445 12.7215 3.41887 12.3944 3.36173C12.2664 3.33894 12.128 3.33647 11.9999 3.33647C8.91278 3.33647 6.39999 5.97765 6.39999 9.22426V11.571C6.39999 13.2078 5.72792 14.758 4.55356 15.8355C4.53115 15.8507 4.50962 15.8675 4.48955 15.886C4.17842 16.1661 4 16.574 4 17.0047C4 17.8164 4.62798 18.4766 5.39995 18.4766H9.06023C9.33905 19.9148 10.5517 21 11.9999 21C13.4483 21 14.6608 19.9148 14.9396 18.4766ZM13.6971 18.4766H10.3028C10.5505 19.2111 11.2181 19.7383 11.9999 19.7383C12.7818 19.7383 13.4494 19.2111 13.6971 18.4766Z" fill="#110E47"/>
<path d="M17.0001 9C15.3458 9 14 7.65428 14 6.00005C14 4.34583 15.3458 3 17.0001 3C18.6543 3 20 4.34583 20 6.00005C20 7.65428 18.6543 9 17.0001 9Z" fill="#FF2E2E"/>
</svg>
