<?xml version="1.0" standalone="no"?>
<!DOCTYPE svg PUBLIC "-//W3C//DTD SVG 20010904//EN"
 "http://www.w3.org/TR/2001/REC-SVG-20010904/DTD/svg10.dtd">
<svg version="1.0" xmlns="http://www.w3.org/2000/svg"
 width="512.000000pt" height="512.000000pt" viewBox="0 0 512.000000 512.000000"
 preserveAspectRatio="xMidYMid meet">

<g transform="translate(0.000000,512.000000) scale(0.100000,-0.100000)"
fill="#000000" stroke="none">
<path d="M2465 5096 c-54 -25 -100 -71 -122 -123 -10 -25 -13 -101 -13 -320 0
-270 1 -289 21 -330 38 -78 124 -133 209 -133 85 0 171 55 209 133 20 41 21
60 21 330 0 219 -3 295 -13 320 -35 83 -130 147 -217 147 -26 0 -66 -10 -95
-24z"/>
<path d="M825 4411 c-49 -23 -99 -74 -119 -123 -21 -50 -20 -134 3 -183 12
-25 94 -115 222 -241 225 -222 236 -229 344 -222 116 7 196 87 203 203 7 108
0 119 -222 344 -126 128 -216 210 -241 222 -52 24 -138 24 -190 0z"/>
<path d="M4110 4414 c-45 -19 -424 -396 -452 -448 -30 -58 -23 -167 15 -224
41 -63 97 -95 172 -100 108 -7 119 0 344 222 128 126 210 216 222 241 24 52
24 138 0 190 -23 49 -74 99 -123 119 -47 20 -132 20 -178 0z"/>
<path d="M2360 3836 c-347 -63 -627 -231 -831 -501 -396 -523 -330 -1273 153
-1719 511 -473 1297 -459 1789 33 508 509 506 1317 -5 1826 -182 181 -390 294
-646 350 -102 22 -361 28 -460 11z"/>
<path d="M145 2776 c-82 -36 -145 -130 -145 -216 0 -87 64 -182 147 -217 25
-10 101 -13 320 -13 270 0 289 1 330 21 139 67 175 243 74 360 -64 76 -77 79
-406 78 -217 0 -298 -3 -320 -13z"/>
<path d="M4324 2771 c-75 -34 -134 -126 -134 -211 0 -85 55 -171 133 -209 41
-20 60 -21 330 -21 219 0 295 3 320 13 83 35 147 130 147 217 0 87 -64 182
-147 217 -25 10 -101 13 -320 13 -258 0 -292 -2 -329 -19z"/>
<path d="M1155 1464 c-50 -27 -425 -405 -446 -449 -38 -81 -19 -187 44 -254
66 -69 177 -91 262 -52 25 12 115 94 241 222 222 225 229 236 222 344 -5 75
-37 131 -100 172 -35 23 -54 28 -117 31 -55 2 -84 -2 -106 -14z"/>
<path d="M3763 1459 c-48 -23 -89 -67 -110 -116 -20 -48 -17 -147 6 -191 28
-54 407 -428 453 -447 84 -34 192 -11 255 56 61 65 81 166 48 247 -19 46 -393
425 -447 453 -52 27 -149 26 -205 -2z"/>
<path d="M2481 916 c-49 -18 -111 -74 -132 -120 -17 -37 -19 -70 -19 -329 0
-219 3 -295 13 -320 35 -83 130 -147 217 -147 87 0 182 64 217 147 10 25 13
101 13 320 0 270 -1 289 -21 330 -51 106 -179 159 -288 119z"/>
</g>
</svg>
